:version 1.10
:name ASF
:units
  mass 1
  length 1
  angle deg
:documentation
  ASF file generated by Kaydara
:root
  axis xyz
  order  tx ty tz rx ry rz
  position 0 0 0
  orientation 0 0 0
:bonedata
  begin
    id 1
    name RightUpLegDummy
    direction -0.65628 -0.754516 0.00165102
    length 4.76918
    axis 0 0 0 xyz
  end
  begin
    id 2
    name RightUpLeg
    direction -0.145584 -0.923362 0.355256
    length 17.9961
    axis -24.7611 -13.1006 1.78531 xyz
    dof rx ry rz
  end
  begin
    id 3
    name RightLeg
    direction 0.263379 0.172355 -0.949171
    length 13.3386
    axis 89.6202 -21.1929 12.3855 xyz
    dof rx ry rz
  end
  begin
    id 4
    name RightFoot
    direction 0.224283 -0.968777 -0.105675
    length 5.86697
    axis 56.995 -39.6905 17.3365 xyz
    dof rx ry rz
  end
  begin
    id 5
    name RightToes
    direction -0.0806345 -0.9037 0.420506
    length 4.75197
    axis 146.825 -39.7828 17.6019 xyz
    dof rx ry rz
  end
  begin
    id 6
    name SpineDummy
    direction -3.39852e-014 1 9.33296e-014
    length 8.13779
    axis 0 0 0 xyz
  end
  begin
    id 7
    name Spine
    direction -0.156609 0.733703 0.661176
    length 7.14978
    axis 41.2365 5.68757 17.0844 xyz
    dof rx ry rz
  end
  begin
    id 8
    name Spine1
    direction 0 0 0
    length 0
    axis 42.8809 47.8308 -3.36039 xyz
    dof rx ry rz
  end
  begin
    id 9
    name HEadDummy
    direction 0.546431 0.701947 0.456819
    length 3.55512
    axis 42.8809 47.8308 -3.36039 xyz
  end
  begin
    id 10
    name HEad
    direction 0.23444 0.828559 0.508457
    length 7.35827
    axis 51.1864 49.2662 27.4903 xyz
    dof rx ry rz
  end
  begin
    id 11
    name LeftShoulder1Dummy
    direction 0.431183 0.475873 -0.766568
    length 2.49352
    axis 42.8809 47.8308 -3.36039 xyz
  end
  begin
    id 12
    name LeftShoulder1
    direction 0.268187 -0.383402 -0.883786
    length 4.48604
    axis -119.517 0.106469 35.1736 xyz
    dof rx ry rz
  end
  begin
    id 13
    name LeftArm
    direction 0.380567 -0.703221 -0.600541
    length 10.1142
    axis -5.41825 36.2925 7.8293 xyz
    dof rx ry rz
  end
  begin
    id 14
    name LeftForeArm
    direction 0.541071 -0.732356 -0.413396
    length 9.39839
    axis 4.65387 33.7604 7.81644 xyz
    dof rx ry rz
  end
  begin
    id 15
    name LeftHand
    direction 0.847511 -0.389379 -0.360707
    length 3.66142
    axis 7.65593 21.1436 -24.6758 xyz
    dof rx ry rz
  end
  begin
    id 16
    name RightShoulderDummy
    direction -0.692546 0.541855 0.476208
    length 2.49352
    axis 42.8809 47.8308 -3.36039 xyz
  end
  begin
    id 17
    name RightShoulder
    direction -0.870808 -0.316653 0.376065
    length 4.48602
    axis 141.571 51.133 -100.254 xyz
    dof rx ry rz
  end
  begin
    id 18
    name RightArm
    direction 0.366897 -0.87275 0.322015
    length 10.1142
    axis 92.3258 71.2036 138.917 xyz
    dof rx ry rz
  end
  begin
    id 19
    name RightForeArm
    direction 0.702487 -0.694568 0.155197
    length 9.39835
    axis 153.863 41.5092 -176.604 xyz
    dof rx ry rz
  end
  begin
    id 20
    name RightHand
    direction 0.79502 -0.601276 0.0800636
    length 3.66142
    axis 154.247 4.59222 142.9 xyz
    dof rx ry rz
  end
  begin
    id 21
    name LeftUpLegDummy
    direction 0.65628 -0.754516 0.00165102
    length 4.76919
    axis 0 0 0 xyz
  end
  begin
    id 22
    name LeftUpLeg
    direction -0.1277 -0.689368 0.713067
    length 17.9961
    axis -48.3385 -17.8675 0.791927 xyz
    dof rx ry rz
  end
  begin
    id 23
    name LeftLeg
    direction 0.109849 -0.991246 -0.0732378
    length 13.3386
    axis -2.05791 -7.30784 1.72042 xyz
    dof rx ry rz
  end
  begin
    id 24
    name LeftFoot
    direction 0.0448355 -0.272614 0.961078
    length 5.86697
    axis -18.7733 -7.89606 10.2113 xyz
    dof rx ry rz
  end
  begin
    id 25
    name LeftToes
    direction -0.18506 0.293668 0.937823
    length 4.75197
    axis 71.2267 -7.89606 10.2113 xyz
    dof rx ry rz
  end
:hierarchy
  begin
    root RightUpLegDummy SpineDummy LeftUpLegDummy
    RightUpLegDummy RightUpLeg
    RightUpLeg RightLeg
    RightLeg RightFoot
    RightFoot RightToes
    SpineDummy Spine
    Spine Spine1
    Spine1 HEadDummy LeftShoulder1Dummy RightShoulderDummy
    HEadDummy HEad
    LeftShoulder1Dummy LeftShoulder1
    LeftShoulder1 LeftArm
    LeftArm LeftForeArm
    LeftForeArm LeftHand
    RightShoulderDummy RightShoulder
    RightShoulder RightArm
    RightArm RightForeArm
    RightForeArm RightHand
    LeftUpLegDummy LeftUpLeg
    LeftUpLeg LeftLeg
    LeftLeg LeftFoot
    LeftFoot LeftToes
  end

:SAMPLES-PER-SECOND 30
:FULLY-SPECIFIED
:DEGREES
128
root  -6.1706 32.9604 4.07005 143.184 50.2755 137.477
RightUpLeg  -5.17017 -14.3835 -0.0941423
RightLeg  -34.7159 -21.1532 1.25246
RightFoot  21.5676 3.22752 -13.7007
RightToes  -1.27222e-014 -6.36111e-015 6.36111e-015
Spine  -9.94326 0.0567878 -6.178
Spine1  3.2534 2.7199 7.09102
HEad  1.07108 -11.392 -23.7973
LeftShoulder1  6.36111e-015 -1.33558e-015 6.49777e-015
LeftArm  48.947 3.067 7.45801
LeftForeArm  -0.14672 -26.9584 -0.846788
LeftHand  -2.41693 -5.08169 -13.0415
RightShoulder  -4.77083e-015 -6.36111e-015 -3.18055e-015
RightArm  4.02713 6.46202 -12.014
RightForeArm  -78.8912 2.98665 -21.2013
RightHand  -1.8457 10.6665 -0.792433
LeftUpLeg  -3.93837 30.2304 -12.0376
LeftLeg  14.2817 -0.897459 1.29077
LeftFoot  1.59561 4.29673 -13.7416
LeftToes  1.27222e-014 -5.20697e-012 1.80337e-011
129
root  -6.26552 34.0338 4.84475 150.247 45.6709 141.529
RightUpLeg  -8.09226 -7.53165 -0.891591
RightLeg  -37.3169 -27.828 5.44506
RightFoot  16.2885 4.79922 -15.1381
RightToes  -1.27222e-014 -6.36111e-015 6.36111e-015
Spine  -12.2647 -0.719498 -5.26812
Spine1  2.93959 0.964353 9.20107
HEad  3.08724 -11.9943 -27.5008
LeftShoulder1  6.36111e-015 -1.33558e-015 6.49777e-015
LeftArm  44.9186 4.5248 0.871947
LeftForeArm  -4.53454 -32.33 1.40966
LeftHand  -2.60771 -5.83726 -12.5619
RightShoulder  -4.77083e-015 -6.36111e-015 -3.18055e-015
RightArm  18.3786 -2.50725 -9.74221
RightForeArm  -76.2252 5.8657 -30.4297
RightHand  -1.62088 8.85032 1.47834
LeftUpLeg  -0.907755 32.7273 -7.95361
LeftLeg  6.27567 -21.5961 -4.22029
LeftFoot  6.91189 9.20173 -25.0906
LeftToes  1.27222e-014 -5.20697e-012 1.80337e-011
130
root  -6.23608 35.3238 5.87578 156.056 41.6282 144.461
RightUpLeg  -9.9503 1.93205 -2.51061
RightLeg  -49.5441 -39.5487 18.4485
RightFoot  15.3326 6.55892 -17.9487
RightToes  -1.27222e-014 -6.36111e-015 6.36111e-015
Spine  -13.348 -1.2469 -4.7241
Spine1  2.04232 -0.307549 10.7209
HEad  3.89053 -13.8402 -31.1622
LeftShoulder1  6.36111e-015 -1.33558e-015 6.49777e-015
LeftArm  40.2866 3.31965 -8.74986
LeftForeArm  -9.80606 -39.8828 5.65628
LeftHand  -3.29903 -8.36229 -14.3933
RightShoulder  -4.77083e-015 -6.36111e-015 -3.18055e-015
RightArm  34.6985 -12.8214 -12.3163
RightForeArm  -70.5571 7.75743 -35.7754
RightHand  -1.41699 7.48269 1.8127
LeftUpLeg  4.07939 33.6963 -2.00338
LeftLeg  -7.33933 -34.8899 -0.314111
LeftFoot  7.94016 14.0818 -36.7658
LeftToes  1.27222e-014 -5.20697e-012 1.80337e-011
131
root  -6.01159 36.264 6.89811 160.227 38.8564 146.257
RightUpLeg  -9.7498 13.4183 -5.07004
RightLeg  -59.2165 -40.5487 25.9663
RightFoot  16.8845 7.17344 -19.1682
RightToes  -1.27222e-014 -6.36111e-015 6.36111e-015
Spine  -14.147 -2.36369 -5.23786
Spine1  0.315776 -1.92739 12.6319
HEad  3.08283 -13.7575 -34.122
LeftShoulder1  6.36111e-015 -1.33558e-015 6.49777e-015
LeftArm  35.2526 2.8547 -13.4906
LeftForeArm  -20.2989 -50.5431 16.4436
LeftHand  -4.29406 -12.5012 -16.3415
RightShoulder  -4.77083e-015 -6.36111e-015 -3.18055e-015
RightArm  48.1422 -20.8951 -15.7876
RightForeArm  -60.4169 5.5492 -28.8665
RightHand  -0.659248 5.17821 -2.87252
LeftUpLeg  9.42607 22.1878 2.35581
LeftLeg  -18.6538 -23.1969 -2.757
LeftFoot  4.55309 13.5055 -38.5379
LeftToes  1.27222e-014 -5.20697e-012 1.80337e-011
132
root  -5.69502 36.5576 7.83119 163.69 37.525 148.101
RightUpLeg  -8.15163 20.3932 -6.65019
RightLeg  -59.6035 -33.7399 20.5835
RightFoot  12.5189 5.21945 -15.1479
RightToes  -1.27222e-014 -6.36111e-015 6.36111e-015
Spine  -15.5024 -4.11281 -6.04904
Spine1  -1.90028 -4.18617 15.9304
HEad  -0.49197 -11.7937 -35.5328
LeftShoulder1  6.36111e-015 -1.33558e-015 6.49777e-015
LeftArm  28.9853 4.42892 -12.4165
LeftForeArm  -41.0725 -55.8315 35.0647
LeftHand  -4.64358 -13.8984 -16.1257
RightShoulder  -4.77083e-015 -6.36111e-015 -3.18055e-015
RightArm  55.1932 -26.5428 -17.7224
RightForeArm  -52.4879 -6.49989 -12.5928
RightHand  0.729455 1.87844 -9.20494
LeftUpLeg  14.1244 20.007 10.5675
LeftLeg  -20.4519 -14.0238 -3.5575
LeftFoot  4.77683 9.9039 -28.5139
LeftToes  1.27222e-014 -5.20697e-012 1.80337e-011
133
root  -5.384 36.3754 8.73595 166.29 37.6078 150.288
RightUpLeg  -6.79767 19.8503 -5.75643
RightLeg  -59.825 -27.8305 14.9766
RightFoot  5.70345 4.97415 -13.1626
RightToes  -1.27222e-014 -6.36111e-015 6.36111e-015
Spine  -16.7422 -5.97319 -6.13716
Spine1  -3.14765 -6.33886 19.3546
HEad  -7.97924 -9.65198 -34.6074
LeftShoulder1  6.36111e-015 -1.33558e-015 6.49777e-015
LeftArm  20.0059 6.43012 -7.94634
LeftForeArm  -60.4653 -52.6389 46.7864
LeftHand  -3.88154 -10.5682 -13.712
RightShoulder  -4.77083e-015 -6.36111e-015 -3.18055e-015
RightArm  58.804 -32.1654 -23.3808
RightForeArm  -53.7407 -18.494 -1.36751
RightHand  0.991926 1.80221 -11.2725
LeftUpLeg  17.5877 13.9453 18.1512
LeftLeg  -11.0727 -10.8815 -0.810097
LeftFoot  6.16475 8.15772 -22.7532
LeftToes  1.27222e-014 -5.20697e-012 1.80337e-011
134
root  -5.15962 35.8947 9.51501 167.648 39.0191 152.331
RightUpLeg  -5.85456 16.175 -2.64348
RightLeg  -61.2594 -26.8045 14.674
RightFoot  -0.536598 7.00939 -16.2658
RightToes  -1.27222e-014 -6.36111e-015 6.36111e-015
Spine  -17.6739 -8.05914 -5.94699
Spine1  -2.96266 -8.17428 22.2006
HEad  -17.7838 -6.44524 -31.3593
LeftShoulder1  6.36111e-015 -1.33558e-015 6.49777e-015
LeftArm  9.52583 8.19808 -2.16723
LeftForeArm  -72.9699 -47.8888 48.7365
LeftHand  -2.93674 -7.15224 -10.0577
RightShoulder  -4.77083e-015 -6.36111e-015 -3.18055e-015
RightArm  63.7664 -36.4522 -31.8967
RightForeArm  -62.2947 -16.6678 0.269178
RightHand  -0.507333 5.97567 -6.94076
LeftUpLeg  22.4087 -1.87502 18.7121
LeftLeg  7.69851 -9.8301 -1.79924
LeftFoot  4.51916 6.82817 -19.9826
LeftToes  1.27222e-014 -5.20697e-012 1.80337e-011
